<svg height="512pt" viewBox="0 -19 512.00014 512" width="512pt" xmlns="http://www.w3.org/2000/svg"><path d="m442.980469 69.578125c-44.5-44.816406-103.640625-69.5273438-166.582031-69.578125h-.199219c-63.007813 0-122.238281 24.710938-166.777344 69.578125-44.511719 44.851563-69.023437 104.460937-69.023437 167.863281 0 36.699219 8.523437 73.148438 24.660156 105.789063-7.726563 29.089843-28.359375 53.257812-56.027344 65.257812-7.601562 3.300781-11.082031 12.140625-7.792969 19.742188.632813 1.441406 1.460938 2.738281 2.441407 3.871093 9.980468 11.46875 22.160156 20.488282 35.640624 26.648438 13.480469 6.148438 28.238282 9.441406 43.371094 9.441406 26.507813 0 51.738282-10.011718 71-27.839844 36.859375 22.628907 78.949219 34.527344 122.507813 34.527344h.199219c62.941406-.050781 122.082031-24.757812 166.582031-69.578125 44.507812-44.851562 69.019531-104.460937 69.019531-167.859375 0-63.402344-24.511719-123.011718-69.019531-167.863281zm0 0" fill="#ffda2d"/><path d="m512 237.441406c0 63.398438-24.511719 123.007813-69.019531 167.859375-44.5 44.820313-103.640625 69.527344-166.582031 69.578125v-474.878906c62.941406.0507812 122.082031 24.761719 166.582031 69.578125 44.507812 44.851563 69.019531 104.460937 69.019531 167.863281zm0 0" fill="#fdbf00"/><path d="m404.128906 331.058594c-6.5 11.269531-18.148437 17.992187-31.148437 17.992187h-193.160157c-13 0-24.648437-6.722656-31.148437-17.992187-6.5-11.257813-6.5-24.707032 0-35.96875l96.578125-167.269532c6.5-11.269531 18.148438-17.992187 31.148438-17.992187s24.652343 6.722656 31.152343 17.992187l96.578125 167.269532c6.5 11.261718 6.5 24.710937 0 35.96875zm0 0" fill="#fff"/><path d="m404.128906 331.058594c-6.5 11.269531-18.148437 17.992187-31.148437 17.992187h-96.582031v-239.222656c13 0 24.652343 6.722656 31.152343 17.992187l96.578125 167.269532c6.5 11.261718 6.5 24.710937 0 35.96875zm0 0" fill="#c5f4ff"/><path d="m291.480469 193.101562v44.558594c0 8.289063-6.710938 15-15 15h-.082031c-8.238282-.039062-14.917969-6.738281-14.917969-15v-44.558594c0-8.25 6.679687-14.960937 14.917969-15h.082031c8.289062 0 15 6.71875 15 15zm0 0" fill="#005fe4"/><path d="m291.480469 278.929688v12.789062c0 8.28125-6.710938 15-15 15h-.082031c-8.238282-.039062-14.917969-6.75-14.917969-15v-12.789062c0-8.25 6.679687-14.960938 14.917969-15h.082031c8.289062 0 15 6.71875 15 15zm0 0" fill="#005fe4"/><g fill="#0040a0"><path d="m291.480469 193.101562v44.558594c0 8.289063-6.710938 15-15 15h-.082031v-74.558594h.082031c8.289062 0 15 6.71875 15 15zm0 0"/><path d="m291.480469 278.929688v12.789062c0 8.28125-6.710938 15-15 15h-.082031v-42.789062h.082031c8.289062 0 15 6.71875 15 15zm0 0"/></g></svg>