<svg viewBox="0 0 512.00039 512" xmlns="http://www.w3.org/2000/svg"><path d="m197 419.960938h-120c-8.292969 0-15-6.710938-15-15 0-8.292969 6.707031-15 15-15h120c8.289062 0 15 6.707031 15 15 0 8.289062-6.710938 15-15 15zm0 0" fill="#68544f"/><path d="m242 254.960938v120c0 8.398437-6.601562 15-15 15-8.402344 0-15-6.601563-15-15v-120c0-8.402344 6.597656-15 15-15 8.398438 0 15 6.597656 15 15zm0 0" fill="#68544f"/><path d="m242 254.960938v120c0 8.398437-6.601562 15-15 15v-150c8.398438 0 15 6.597656 15 15zm0 0" fill="#53433f"/><path d="m503.339844 233.253906-54.375-25.359375c-7.453125-3.457031-16.40625-.234375-19.933594 7.253907l-25.359375 54.375c-3.5 7.511718-.246094 16.433593 7.253906 19.933593l54.375 25.359375c7.589844 3.523438 16.457031.179688 19.933594-7.253906l25.359375-54.375c3.5-7.511719.246094-16.433594-7.253906-19.933594zm0 0" fill="#53433f"/><path d="m462.496094 214.460938-56.996094 122.097656c-2.402344 5.402344-7.800781 8.703125-13.5 8.703125-2.101562 0-4.503906-.601563-6.300781-1.503907l-158.699219-74.097656-167.703125-78c-7.5-3.601562-10.796875-12.300781-7.199219-19.800781l18.902344-40.800781 156 33.300781zm0 0" fill="#d2c5c2"/><path d="m462.496094 214.460938-56.996094 122.097656c-2.402344 5.402344-7.800781 8.703125-13.5 8.703125-2.101562 0-4.503906-.601563-6.300781-1.503907l-158.699219-74.097656v-105.300781zm0 0" fill="#c4b3af"/><path d="m501.5 166.160156-274.5-127.800781-78.902344-36.898437c-7.5-3.601563-16.5-.300782-20.097656 7.199218l-50.398438 108-6.601562 14.398438 156 72.601562 129.597656 60.296875c2.101563 1.199219 4.199219 1.5 6.300782 1.5 2.398437 0 4.800781-.597656 7.199218-1.796875l92.402344-49.199218 39.597656-21.300782c5.101563-2.699218 8.101563-8.101562 8.101563-13.800781-.300781-5.699219-3.601563-10.800781-8.699219-13.199219zm0 0" fill="#ffe470"/><path d="m510.199219 179.359375c0 5.699219-3 11.101563-8.101563 13.800781l-39.601562 21.300782-92.398438 49.199218c-2.398437 1.199219-4.800781 1.800782-7.199218 1.800782-2.101563 0-4.199219-.300782-6.300782-1.5l-129.597656-60.300782v-165.300781l274.496094 127.800781c5.101562 2.398438 8.402344 7.5 8.703125 13.199219zm0 0" fill="#ffd400"/><path d="m197.90625 122.378906c-2.121094 0-4.277344-.453125-6.328125-1.40625l-27.1875-12.6875c-7.5-3.5-10.75-12.421875-7.25-19.9375 3.515625-7.484375 12.449219-10.734375 19.9375-7.25l27.1875 12.6875c7.5 3.5 10.75 12.421875 7.25 19.9375-2.546875 5.449219-7.953125 8.65625-13.609375 8.65625zm0 0" fill="#ff7816"/><path d="m77 511.960938h-61c-8.292969 0-16-6.710938-16-15v-182c0-8.292969 7.707031-15 16-15h61c8.289062 0 15 6.707031 15 15v182c0 8.289062-6.710938 15-15 15zm0 0" fill="#d2c5c2"/><path d="m227 359.960938c-24.902344 0-45 20.097656-45 45 0 24.898437 20.097656 45 45 45 24.898438 0 45-20.101563 45-45 0-24.902344-20.101562-45-45-45zm0 0" fill="#d2c5c2"/><path d="m272 404.960938c0 24.898437-20.101562 45-45 45v-90c24.898438 0 45 20.097656 45 45zm0 0" fill="#c4b3af"/></svg>